<?xml version="1.0" standalone="no"?>
<!DOCTYPE svg PUBLIC "-//W3C//DTD SVG 20010904//EN"
 "http://www.w3.org/TR/2001/REC-SVG-20010904/DTD/svg10.dtd">
<svg version="1.0" xmlns="http://www.w3.org/2000/svg"
 width="300.000000pt" height="300.000000pt" viewBox="0 0 300.000000 300.000000"
 preserveAspectRatio="xMidYMid meet">
<metadata>
Created by potrace 1.14, written by Peter Selinger 2001-2017
</metadata>
<g transform="translate(0.000000,300.000000) scale(0.100000,-0.100000)"
fill="#000000" stroke="none">
<path d="M167 2585 c-58 -22 -110 -67 -137 -122 l-25 -48 0 -920 0 -920 22
-41 c31 -58 79 -101 137 -123 49 -18 102 -18 1346 -17 l1295 1 47 23 c62 31
115 94 133 157 20 75 19 1777 -2 1848 -17 57 -70 120 -127 150 l-41 22 -1305
2 c-1101 1 -1311 0 -1343 -12z m2644 -87 c20 -9 49 -33 65 -54 l29 -37 3 -895
c2 -878 2 -896 -18 -936 -11 -23 -36 -52 -57 -66 l-37 -25 -1288 -3 c-1269 -2
-1289 -2 -1327 18 -40 20 -73 58 -85 98 -4 12 -7 418 -7 901 0 964 -3 921 60
974 32 26 50 33 101 39 14 2 588 3 1275 2 1104 -1 1254 -3 1286 -16z"/>
<path d="M1173 2432 c-26 -4 -31 -27 -8 -36 20 -7 19 -42 -2 -50 -12 -5 -27 4
-51 33 -30 36 -39 41 -77 41 l-44 0 24 -42 c14 -24 25 -51 25 -60 0 -31 -45
-63 -145 -103 -37 -15 -46 -13 -55 9 -14 37 -35 49 -62 35 -34 -18 -47 -40
-48 -77 0 -43 54 -104 94 -104 l27 0 -33 -21 c-38 -23 -116 -53 -138 -52 -41
2 -54 43 -23 77 15 17 14 18 -20 18 -44 0 -62 -26 -52 -77 9 -50 45 -63 151
-54 6 1 37 19 70 41 32 22 70 41 84 42 23 3 25 0 23 -32 -1 -33 0 -34 13 -16
29 41 11 76 -41 76 -27 1 -28 2 -10 12 11 6 31 20 43 32 l24 21 24 -28 c17
-20 24 -40 24 -71 0 -52 -22 -83 -66 -95 -28 -8 -33 -6 -43 15 -16 35 -60 43
-83 14 -19 -24 -16 -57 10 -97 8 -13 11 -30 8 -39 -4 -12 0 -15 17 -12 18 2
22 9 21 36 0 20 4 32 13 32 7 0 13 -9 13 -19 0 -11 5 -23 10 -26 6 -4 10 5 10
19 0 14 5 26 10 26 6 0 10 -9 10 -19 0 -11 5 -23 10 -26 6 -3 10 2 10 13 0 29
11 34 38 16 23 -15 26 -15 49 8 51 51 42 150 -22 244 -29 42 -30 55 -11 92 26
50 51 56 163 38 187 -30 226 -18 227 69 1 40 -3 50 -24 66 -14 10 -36 19 -50
21 -23 3 -25 0 -22 -29 4 -42 -17 -44 -41 -3 -21 35 -43 48 -74 42z"/>
<path d="M2500 2388 c-26 -28 -25 -46 3 -76 21 -23 21 -24 3 -37 -26 -19 -97
-29 -168 -22 -45 4 -87 18 -167 57 -58 29 -126 59 -151 67 -123 40 -270 13
-340 -62 -22 -23 -25 -36 -25 -97 -1 -60 -4 -72 -23 -87 -20 -15 -28 -40 -23
-80 0 -8 13 -1 30 18 35 37 57 35 166 -12 94 -41 166 -41 380 -2 228 42 213
41 248 22 40 -22 77 -78 77 -117 0 -46 -35 -58 -105 -36 -125 39 -324 54 -430
32 -125 -27 -321 -116 -432 -197 -37 -27 -72 -49 -78 -50 -5 0 -39 0 -75 0
-36 0 -56 -3 -45 -7 69 -24 130 -90 140 -153 6 -32 10 -37 23 -30 38 19 82 -7
82 -49 0 -46 -46 -70 -86 -45 -19 12 -23 11 -33 -12 l-12 -26 64 7 c81 8 146
31 266 92 l93 47 -33 11 c-28 9 -35 17 -37 44 -4 42 12 62 49 62 20 0 34 -8
46 -26 16 -25 16 -29 1 -55 l-17 -28 44 21 c40 20 43 23 38 53 -4 26 -1 36 18
49 30 21 52 20 72 -2 19 -21 23 -67 7 -77 -6 -4 -2 -13 10 -23 11 -9 39 -53
62 -97 43 -79 50 -86 130 -121 44 -19 58 -49 31 -69 -10 -7 -42 -22 -71 -31
-54 -19 -126 -70 -117 -83 5 -9 27 -8 99 4 36 6 50 4 56 -6 7 -11 12 -10 27 3
10 9 30 20 46 23 21 6 31 2 45 -16 22 -26 52 -20 52 11 0 27 12 25 49 -6 28
-23 37 -25 76 -19 l45 6 -71 67 -72 67 22 35 c11 19 21 48 21 64 l0 29 -22
-20 c-33 -29 -44 -34 -62 -27 -27 10 -18 40 37 121 29 43 59 92 66 109 14 35
18 132 7 179 -6 26 -1 37 27 70 19 22 39 50 45 62 30 57 0 138 -67 177 -30 17
-54 19 -268 21 -231 1 -235 2 -252 24 -19 25 -31 19 -31 -15 0 -19 -3 -21 -27
-15 -16 4 -38 22 -49 39 -23 34 -34 27 -34 -24 0 -28 -18 -31 -60 -9 -67 35
-88 101 -50 163 28 45 80 66 145 58 91 -10 113 -23 126 -69 8 -29 13 -36 19
-27 5 8 7 17 4 21 -5 9 25 21 37 13 5 -3 9 -14 9 -24 0 -26 17 -34 29 -13 8
15 14 12 51 -27 38 -42 40 -43 25 -13 -8 18 -15 35 -15 38 0 11 44 -7 76 -32
18 -13 46 -28 63 -33 29 -8 31 -7 26 11 -6 17 -1 19 47 20 29 0 64 3 77 5 98
18 153 134 90 187 -28 23 -54 22 -79 -5z m-460 -480 c29 -31 12 -80 -31 -91
-24 -6 -69 32 -69 58 0 21 36 55 60 55 10 0 28 -10 40 -22z m180 2 c27 -27 25
-55 -6 -79 -37 -29 -84 -9 -84 38 0 30 9 46 30 54 27 10 40 7 60 -13z m165
-84 c11 -33 -2 -57 -38 -70 -37 -13 -69 16 -65 58 6 59 83 68 103 12z m-431
-42 c50 -49 -24 -124 -76 -77 -36 33 -13 93 37 93 13 0 31 -7 39 -16z m183 2
c12 -4 25 -15 28 -25 7 -22 -13 -71 -29 -72 -6 0 -19 -2 -28 -4 -41 -8 -69 64
-37 94 21 19 28 20 66 7z m371 -22 c51 -35 8 -117 -50 -95 -42 16 -50 59 -18
91 24 24 38 25 68 4z m-724 -49 c8 -32 -2 -55 -29 -65 -49 -19 -91 20 -74 68
18 47 91 45 103 -3z m494 -21 c39 -27 22 -94 -24 -94 -59 0 -85 50 -47 92 20
22 42 23 71 2z m-686 -11 c20 -18 24 -63 6 -81 -20 -20 -76 -15 -88 7 -15 29
-12 49 10 71 24 24 47 25 72 3z m847 -87 c34 -41 11 -96 -40 -96 -51 0 -71 65
-31 98 21 16 57 15 71 -2z m-719 -41 c16 -20 16 -61 0 -80 -21 -26 -72 -15
-88 18 -12 24 -11 31 2 53 19 28 66 33 86 9z m586 -70 c19 -28 11 -60 -18 -76
-51 -27 -105 29 -73 77 21 33 69 33 91 -1z"/>
<path d="M533 2339 c-59 -29 -75 -51 -87 -122 -13 -74 -12 -468 1 -504 3 -8
23 -13 49 -13 33 0 46 5 54 20 9 17 8 111 -4 430 -2 59 13 153 29 176 21 32 5
37 -42 13z"/>
<path d="M1054 2242 c-6 -4 -14 -20 -18 -37 -4 -19 -3 -25 2 -17 13 20 47 10
47 -13 0 -23 -34 -33 -46 -13 -7 10 -9 10 -9 -3 0 -20 21 -47 40 -49 31 -4 40
1 40 20 0 18 3 19 23 9 12 -6 32 -21 44 -32 30 -27 38 -17 18 22 -8 17 -13 31
-10 31 3 0 33 -14 67 -31 51 -26 60 -28 53 -12 -4 10 -10 28 -12 41 -5 19 -2
21 15 15 24 -9 142 -4 142 6 0 6 -103 61 -115 61 -3 0 -5 -9 -5 -20 0 -17 -5
-19 -27 -15 -97 16 -103 16 -103 1 0 -23 -17 -20 -77 14 -59 34 -54 32 -69 22z"/>
<path d="M1365 2129 c-4 -6 -4 -26 0 -45 l6 -36 -54 7 c-50 6 -55 5 -60 -15
-5 -19 -10 -21 -34 -15 -15 3 -42 17 -60 31 -17 13 -36 24 -41 24 -17 0 -23
-32 -11 -67 11 -34 31 -47 22 -14 -8 32 10 31 67 -5 62 -39 85 -40 85 -4 0 24
2 25 65 25 58 0 65 2 68 21 2 16 15 23 63 33 55 11 73 31 29 31 -11 0 -43 9
-72 20 -61 23 -65 24 -73 9z"/>
<path d="M1440 2010 c-9 -6 -9 -13 0 -30 15 -29 11 -31 -33 -19 -50 14 -77 4
-77 -27 0 -34 -24 -40 -65 -15 -45 26 -65 27 -72 1 -8 -29 -18 -25 -54 20 -18
22 -36 37 -40 33 -8 -8 -20 -103 -14 -103 3 0 10 11 18 25 l13 26 38 -31 c46
-36 49 -36 68 -9 l14 22 48 -26 c54 -29 80 -23 91 20 7 28 16 28 77 6 26 -9
50 -14 53 -11 4 3 -1 22 -9 42 -16 39 -17 38 49 48 11 2 -4 10 -37 19 -31 9
-62 13 -68 9z"/>
<path d="M1562 1929 c-14 -5 -22 -17 -23 -34 -1 -14 -2 -31 -3 -37 -1 -9 -19
-13 -53 -13 -40 0 -57 -5 -76 -23 -23 -21 -29 -23 -78 -14 -33 6 -60 7 -71 1
-27 -15 -64 -10 -91 11 l-26 21 -11 -21 c-14 -26 -26 -25 -56 5 -19 19 -32 24
-47 19 -23 -6 -117 -100 -117 -116 0 -11 46 0 91 23 20 10 39 16 41 14 3 -3 2
-25 -2 -50 -4 -24 -3 -50 2 -57 9 -14 33 8 89 81 26 33 27 33 53 16 14 -9 42
-18 61 -20 31 -2 38 2 51 26 8 16 16 29 18 29 2 0 23 -9 47 -20 24 -11 54 -20
67 -20 18 0 22 5 22 34 0 19 6 36 13 38 6 3 42 3 80 1 64 -4 89 7 50 21 -13 6
-10 11 18 30 19 12 49 29 67 37 17 8 32 17 32 21 0 9 -121 7 -148 -3z"/>
<path d="M587 1698 c-7 -27 -36 -45 -86 -52 -44 -6 -73 6 -90 38 -23 43 -31
33 -22 -29 4 -26 24 -39 68 -44 l48 -6 0 -80 c1 -93 -9 -148 -26 -154 -7 -2
-22 -13 -33 -25 -12 -12 -34 -27 -49 -34 -36 -15 -28 -28 23 -37 34 -6 43 -12
55 -41 8 -19 16 -34 19 -34 3 0 12 13 20 29 9 16 31 37 51 47 41 21 46 38 12
39 -22 0 -22 2 -20 105 1 58 3 129 3 158 0 29 4 51 9 48 12 -8 27 13 33 46 7
35 -7 58 -15 26z"/>
<path d="M1137 1687 c-22 -7 -52 -25 -67 -40 l-29 -29 -23 36 c-19 30 -28 36
-53 34 -28 -3 -30 -6 -33 -52 -7 -104 99 -254 202 -289 65 -22 70 -11 31 68
-39 78 -48 162 -20 202 19 27 67 52 118 60 26 4 34 9 25 14 -19 12 -106 10
-151 -4z"/>
<path d="M842 1625 c-21 -19 -51 -39 -67 -45 -43 -16 -107 -14 -143 4 l-32 17
7 -43 c9 -53 9 -85 0 -120 l-7 -26 53 14 c132 35 180 8 196 -111 l8 -50 7 40
c11 62 28 88 71 110 l40 21 -28 23 c-42 35 -59 76 -58 142 0 32 -2 59 -4 59
-3 0 -22 -16 -43 -35z"/>
<path d="M1240 1629 c-72 -44 -77 -86 -24 -192 56 -112 47 -195 -23 -217 -69
-23 -112 -50 -128 -80 -21 -40 -19 -42 18 -21 17 10 44 22 60 25 24 6 27 3 27
-18 0 -56 10 -59 56 -16 59 54 68 53 66 -8 -1 -21 4 -19 58 23 l59 45 34 -30
c30 -26 87 -42 87 -24 0 3 -14 23 -30 45 l-31 38 26 40 c28 41 26 81 -2 42
-17 -24 -55 -28 -73 -6 -12 14 -10 55 8 150 7 35 8 73 3 146 0 11 -14 34 -30
50 -24 24 -38 29 -78 29 -31 0 -60 -7 -83 -21z"/>
<path d="M382 1574 c-7 -13 -10 -29 -7 -36 2 -7 6 -30 10 -51 3 -21 12 -53 19
-72 12 -28 21 -35 42 -35 26 0 26 1 10 19 -17 19 -18 54 -2 79 4 7 3 19 -4 27
-7 8 -10 26 -8 40 9 42 -43 67 -60 29z"/>
<path d="M1929 1505 c-24 -14 -63 -34 -86 -46 -24 -11 -43 -21 -43 -23 0 -1
45 -35 100 -76 55 -40 100 -78 100 -85 0 -17 -49 -32 -125 -38 -41 -4 -63 -11
-72 -24 -22 -29 -12 -48 25 -47 37 1 38 -2 15 -29 -17 -19 -17 -19 31 -12 76
12 81 11 80 -7 -1 -12 16 -5 67 29 41 27 74 43 84 39 17 -6 35 28 35 68 0 13
9 35 21 50 11 14 19 26 17 26 -2 0 -17 -4 -35 -9 -51 -15 -62 1 -67 99 -4 65
-9 87 -22 97 -28 20 -77 15 -125 -12z"/>
<path d="M551 1007 c-46 -23 -66 -63 -66 -131 0 -103 58 -163 138 -142 19 4
24 12 22 33 -1 25 -4 28 -32 25 -36 -4 -53 18 -57 71 -6 67 26 107 74 92 16
-5 19 -2 17 22 -1 15 -6 31 -12 35 -15 12 -57 9 -84 -5z"/>
<path d="M680 873 l0 -143 89 0 89 0 -2 30 c-1 29 -2 30 -54 30 -52 0 -52 0
-50 30 2 29 4 30 50 30 46 0 48 1 48 30 0 28 -1 29 -47 27 -46 -2 -48 0 -51
26 -3 28 -3 29 50 26 53 -3 53 -3 53 26 l0 30 -87 0 -88 0 0 -142z"/>
<path d="M880 1009 c0 -4 14 -37 32 -75 25 -53 32 -82 33 -133 l1 -66 34 0 35
0 5 75 c4 51 13 89 28 118 13 23 27 53 31 65 9 22 7 23 -27 21 -21 -1 -40 -2
-43 -3 -4 -1 -10 -17 -14 -37 -7 -40 -14 -38 -30 9 -9 28 -14 32 -47 32 -21 1
-38 -2 -38 -6z"/>
<path d="M1119 980 c-1 -37 -1 -164 0 -217 l1 -33 85 0 85 0 0 30 c0 29 -1 30
-50 30 l-50 0 0 113 0 113 -35 0 c-33 -1 -35 -3 -36 -36z"/>
<path d="M1361 1007 c-75 -37 -88 -181 -23 -249 30 -33 93 -38 130 -12 53 37
72 146 38 212 -28 54 -93 76 -145 49z m68 -56 c18 -11 26 -98 12 -133 -15 -39
-48 -37 -65 3 -21 50 0 139 34 139 3 0 11 -4 19 -9z"/>
<path d="M1556 1010 c-1 -3 -2 -66 -2 -140 l1 -135 35 0 35 0 -2 80 -1 80 32
-80 c31 -78 33 -80 69 -83 l38 -3 -3 143 -3 142 -32 2 -32 2 -3 -77 -3 -76
-28 76 c-28 76 -28 76 -63 75 -20 0 -37 -3 -38 -6z"/>
<path d="M1908 988 c-4 -23 -1 -28 16 -28 40 0 43 -11 42 -123 l-1 -107 38 0
37 0 0 116 c0 104 2 115 18 113 37 -3 43 1 40 28 l-3 28 -92 1 -91 0 -4 -28z"/>
<path d="M2142 1011 c-7 -5 -9 -241 -3 -273 0 -5 39 -8 86 -8 l85 0 0 30 c0
29 -1 30 -49 30 -51 0 -62 9 -53 43 3 13 15 17 46 17 51 0 55 3 48 36 -4 22
-9 25 -39 21 -38 -5 -66 14 -56 39 4 10 17 15 42 14 58 -3 61 -1 61 28 l0 28
-80 0 c-44 0 -84 -2 -88 -5z"/>
<path d="M2404 1006 c-9 -25 -74 -258 -74 -267 0 -5 15 -9 34 -9 30 0 35 4 41
30 5 25 12 30 35 30 23 0 30 -5 35 -30 6 -27 10 -30 47 -30 28 0 39 4 35 13
-2 6 -19 64 -37 127 -18 63 -36 122 -40 130 -10 17 -70 22 -76 6z m47 -113 c0
-10 2 -26 4 -35 2 -12 -3 -18 -17 -18 -14 0 -18 5 -14 16 3 9 6 24 6 35 0 24
20 25 21 2z"/>
<path d="M490 655 c-18 -21 -6 -42 28 -50 17 -3 33 -12 36 -20 6 -17 -26 -29
-54 -20 -11 3 -20 2 -20 -3 0 -13 47 -24 71 -17 10 4 23 15 29 25 11 20 0 33
-43 49 -47 18 -34 36 22 31 14 -1 21 2 17 9 -10 16 -72 13 -86 -4z"/>
<path d="M616 643 c10 -16 20 -44 24 -63 6 -41 24 -43 28 -3 2 15 12 39 23 54
22 32 24 39 6 39 -8 0 -20 -11 -27 -26 l-14 -25 -13 25 c-8 15 -21 26 -29 26
-14 0 -14 -3 2 -27z"/>
<path d="M737 663 c-8 -16 1 -105 12 -116 12 -12 15 1 11 58 l-1 30 24 -30 25
-29 20 33 20 33 -1 -46 c-1 -46 7 -65 20 -53 4 4 7 34 8 67 0 50 -2 60 -16 60
-9 0 -26 -13 -36 -30 l-19 -30 -17 30 c-17 28 -41 39 -50 23z"/>
<path d="M910 606 l0 -64 46 4 c52 3 68 13 62 40 -2 12 -17 22 -41 28 -25 7
-37 15 -37 27 0 12 6 16 20 12 11 -3 20 -12 20 -19 0 -19 19 -18 27 2 8 21
-14 34 -59 34 l-38 0 0 -64z m78 -25 c-5 -24 -48 -27 -48 -3 0 25 7 31 31 25
12 -3 19 -12 17 -22z"/>
<path d="M1064 662 c-17 -11 -33 -47 -30 -67 2 -11 14 -28 28 -38 22 -17 31
-18 61 -8 27 9 37 19 42 42 10 44 -16 79 -58 79 -17 0 -37 -4 -43 -8z m72 -38
c8 -30 -1 -53 -22 -61 -43 -16 -72 53 -33 81 27 18 47 11 55 -20z"/>
<path d="M1190 607 l0 -64 50 0 c28 0 50 4 50 9 0 4 -16 8 -35 8 l-35 0 0 55
c0 42 -3 55 -15 55 -12 0 -15 -14 -15 -63z"/>
<path d="M1387 652 c-41 -45 -3 -117 55 -108 17 3 37 11 45 19 21 21 20 75 -3
92 -27 20 -78 19 -97 -3z m84 -30 c4 -50 -10 -67 -45 -58 -22 5 -26 12 -26 41
0 22 6 37 17 44 22 12 53 -3 54 -27z"/>
<path d="M1532 608 c2 -38 7 -61 13 -58 10 5 11 9 14 38 1 7 15 12 37 12 19 0
33 4 30 8 -2 4 -17 8 -33 7 -15 0 -31 4 -35 9 -13 18 3 31 37 30 19 -1 35 2
35 7 0 5 -23 9 -50 9 l-51 0 3 -62z"/>
<path d="M1730 650 c-11 -11 -20 -28 -20 -39 0 -29 40 -73 61 -68 10 3 23 -1
30 -9 13 -16 49 -19 49 -3 0 5 -4 8 -9 4 -15 -9 -24 14 -11 30 6 7 13 25 16
39 10 56 -73 89 -116 46z m86 -26 c8 -33 -3 -61 -18 -46 -17 17 -31 15 -24 -3
3 -8 2 -15 -2 -15 -15 0 -32 24 -32 46 0 52 64 66 76 18z"/>
<path d="M1874 618 c2 -29 4 -56 5 -60 3 -16 63 -19 85 -4 20 13 24 24 24 66
1 37 -3 50 -14 50 -10 0 -14 -12 -14 -42 0 -52 -11 -71 -36 -66 -15 2 -20 14
-22 56 -2 37 -7 52 -17 52 -11 0 -14 -12 -11 -52z"/>
<path d="M2028 613 c-27 -62 -26 -90 3 -55 22 28 46 28 69 0 10 -13 21 -20 25
-17 10 10 -41 124 -58 127 -9 2 -23 -18 -39 -55z m42 -13 c-18 -11 -24 -6 -16
16 5 14 9 15 19 5 9 -9 9 -14 -3 -21z"/>
<path d="M2150 608 l0 -63 50 -2 c28 -1 50 2 50 8 0 5 -16 9 -35 9 l-35 0 0
55 c0 42 -3 55 -15 55 -12 0 -15 -14 -15 -62z"/>
<path d="M2269 665 c-6 -6 -1 -116 6 -123 11 -12 18 10 20 68 1 40 -2 60 -10
60 -6 0 -14 -2 -16 -5z"/>
<path d="M2331 657 c24 -11 26 -17 25 -65 -1 -33 3 -52 10 -52 16 0 21 18 20
68 -1 37 1 42 21 42 13 0 23 5 23 10 0 6 -27 10 -62 9 -57 -1 -60 -2 -37 -12z"/>
<path d="M2465 624 c13 -25 22 -51 19 -58 -3 -7 2 -16 10 -19 12 -5 16 0 16
22 0 15 11 45 25 65 23 33 23 36 5 36 -10 0 -22 -9 -25 -20 -3 -11 -10 -20
-15 -20 -5 0 -14 9 -20 20 -6 11 -17 20 -25 20 -11 0 -9 -11 10 -46z"/>
</g>
</svg>
